M48
; DRILL file {KiCad 8.0.8} date 2025-04-18T17:47:10-0500
; FORMAT={-:-/ absolute / inch / decimal}
; #@! TF.CreationDate,2025-04-18T17:47:10-05:00
; #@! TF.GenerationSoftware,Kicad,Pcbnew,8.0.8
; #@! TF.FileFunction,Plated,1,2,PTH
FMAT,2
INCH
; #@! TA.AperFunction,Plated,PTH,ViaDrill
T1C0.0200
; #@! TA.AperFunction,Plated,PTH,ComponentDrill
T2C0.0250
; #@! TA.AperFunction,Plated,PTH,ComponentDrill
T3C0.0276
; #@! TA.AperFunction,Plated,PTH,ViaDrill
T4C0.0280
; #@! TA.AperFunction,Plated,PTH,ComponentDrill
T5C0.0300
; #@! TA.AperFunction,Plated,PTH,ViaDrill
T6C0.0320
; #@! TA.AperFunction,Plated,PTH,ComponentDrill
T7C0.0350
; #@! TA.AperFunction,Plated,PTH,ComponentDrill
T8C0.0354
; #@! TA.AperFunction,Plated,PTH,ComponentDrill
T9C0.0394
; #@! TA.AperFunction,Plated,PTH,ComponentDrill
T10C0.0450
; #@! TA.AperFunction,Plated,PTH,ComponentDrill
T11C0.0800
%
G90
G05
T1
X4.5315Y-3.349
X4.5315Y-4.724
X4.5315Y-4.824
X4.5315Y-4.924
X4.5315Y-5.024
X4.5415Y-3.981
X4.5415Y-4.031
X4.5415Y-4.081
X4.5415Y-4.131
X4.5548Y-3.5038
X4.5548Y-3.8542
X4.5615Y-4.324
X4.5615Y-4.384
X4.5615Y-4.624
X4.5695Y-3.539
X4.5715Y-3.475
X4.5715Y-3.822
X4.5715Y-3.888
X4.5845Y-3.855
X4.5865Y-3.504
X4.5885Y-4.031
X4.5915Y-3.981
X4.5915Y-4.131
X4.6005Y-3.881
X4.6025Y-3.477
X4.6115Y-3.614
X4.6115Y-3.664
X4.6215Y-4.264
X4.6215Y-4.324
X4.6215Y-4.384
X4.6215Y-4.624
X4.6315Y-3.224
X4.6315Y-3.274
X4.6315Y-4.724
X4.6815Y-3.224
X4.6815Y-3.274
X4.6815Y-3.324
X4.6815Y-3.374
X4.6815Y-4.264
X4.6815Y-4.324
X4.6815Y-4.384
X4.6815Y-4.444
X4.6815Y-4.504
X4.6815Y-4.564
X4.6815Y-4.624
X4.6907Y-4.991
X4.7045Y-3.728
X4.7115Y-3.574
X4.7135Y-3.853
X4.7165Y-3.5038
X4.7235Y-3.748
X4.7285Y-4.458
X4.7285Y-4.524
X4.7315Y-3.274
X4.7315Y-4.724
X4.7595Y-3.502
X4.7595Y-3.852
X4.7715Y-3.229
X4.7735Y-3.528
X4.7745Y-3.477
X4.7765Y-3.826
X4.7765Y-3.876
X4.7815Y-4.724
X4.7815Y-5.124
X4.7905Y-3.503
X4.7905Y-3.962
X4.7925Y-3.852
X4.7945Y-4.654
X4.798Y-4.322
X4.8025Y-4.251
X4.8185Y-4.578
X4.8295Y-4.654
X4.8315Y-3.274
X4.8315Y-4.724
X4.8315Y-4.824
X4.8315Y-4.924
X4.8465Y-4.089
X4.8645Y-4.656
X4.8715Y-4.089
X4.8715Y-4.234
X4.8815Y-5.124
X4.8965Y-4.229
X4.9315Y-3.274
X4.9315Y-4.024
X4.9315Y-4.074
X4.9365Y-3.664
X4.9365Y-3.734
X4.9415Y-3.369
X4.9615Y-3.434
X4.9615Y-3.469
X4.9815Y-3.519
X4.9815Y-3.579
X4.9815Y-4.024
X4.9815Y-4.074
X4.9835Y-4.188
X4.9995Y-4.524
X5.0315Y-3.734
X5.0315Y-3.779
X5.0335Y-4.835
X5.0415Y-3.344
X5.0455Y-4.577
X5.1035Y-4.59
X5.1115Y-4.339
X5.1147Y-4.8062
X5.1265Y-4.727
X5.1415Y-3.344
X5.1465Y-3.494
X5.1745Y-4.741
X5.1825Y-4.834
X5.2135Y-4.991
X5.2165Y-4.339
X5.2215Y-3.344
X5.2215Y-3.944
X5.2285Y-4.905
X5.2295Y-4.752
X5.2415Y-3.724
X5.2615Y-4.544
X5.2615Y-4.949
X5.2715Y-4.434
X5.2765Y-3.904
X5.2815Y-4.184
X5.2825Y-3.974
X5.2865Y-4.556
X5.2965Y-4.644
X5.3015Y-3.344
X5.3065Y-3.959
X5.3165Y-4.684
X5.3265Y-4.5
X5.3365Y-3.614
X5.3565Y-4.4605
X5.3615Y-3.344
X5.3715Y-4.859
X5.3785Y-4.748
X5.3855Y-4.726
X5.3955Y-4.459
X5.4075Y-4.746
X5.4215Y-3.744
X5.4615Y-3.534
X5.4625Y-4.221
X5.4815Y-3.704
X5.4815Y-3.764
X5.4815Y-3.824
X5.4865Y-3.129
X5.4915Y-4.689
X5.4965Y-5.029
X5.5015Y-5.099
X5.5265Y-4.499
X5.5315Y-3.999
X5.5315Y-4.424
X5.5365Y-4.689
X5.5415Y-4.929
X5.5665Y-4.309
X5.5765Y-3.124
X5.5815Y-3.224
X5.5815Y-3.374
X5.5815Y-3.424
X5.5865Y-4.139
X5.6015Y-3.519
X5.6265Y-4.929
X5.6315Y-3.374
X5.6315Y-3.424
X5.6315Y-4.424
X5.6791Y-4.0276
X5.6815Y-3.424
X5.6815Y-4.204
X5.7015Y-4.009
X5.7065Y-3.574
X5.7095Y-3.547
X5.7255Y-4.701
X5.7265Y-4.485
X5.7275Y-4.936
X5.7365Y-4.149
X5.7365Y-4.176
X5.8015Y-4.014
X5.8115Y-3.474
X5.8117Y-4.0692
X5.8135Y-4.769
X5.819Y-3.8315
X5.8215Y-3.997
X5.8315Y-3.494
X5.8415Y-4.854
X5.8465Y-3.829
X5.8465Y-4.104
X5.8745Y-3.46
X5.8855Y-3.751
X5.8915Y-4.069
X5.8925Y-3.485
X5.9365Y-4.104
X5.9755Y-4.762
X5.9765Y-4.069
X6.0165Y-4.104
X6.0195Y-4.877
X6.0565Y-4.069
X6.0745Y-4.5827
X6.0815Y-5.024
X6.0915Y-4.104
X6.1015Y-4.5927
X6.1025Y-4.966
X6.1315Y-4.174
X6.1315Y-4.224
X6.1315Y-4.274
X6.1315Y-5.024
X6.1415Y-4.624
X6.1465Y-5.099
X6.1515Y-4.649
X6.1815Y-4.224
X6.1815Y-4.274
X6.1815Y-4.324
X6.2045Y-4.833
X6.2165Y-3.179
X6.2195Y-4.681
X6.2315Y-3.624
X6.2315Y-4.274
X6.2315Y-4.324
X6.2415Y-4.764
X6.2665Y-4.764
X6.2735Y-3.797
X6.2815Y-3.624
X6.3115Y-4.414
X6.3115Y-4.464
X6.3115Y-4.514
X6.3135Y-4.137
X6.3315Y-3.624
X6.3315Y-4.924
X6.3415Y-4.844
X6.3815Y-3.374
X6.3815Y-3.424
X6.3815Y-3.624
X6.3815Y-4.924
X6.3965Y-5.079
X6.4315Y-3.374
X6.4315Y-3.424
X6.4315Y-3.624
X6.4315Y-3.874
X6.4315Y-4.574
X6.4315Y-4.624
X6.4315Y-4.879
X6.4315Y-4.924
X6.4487Y-4.2668
X6.4815Y-3.374
X6.4815Y-3.424
X6.4815Y-3.624
X6.4815Y-3.874
X6.4815Y-4.424
X6.4815Y-4.474
X6.4815Y-4.524
X6.4815Y-4.574
X6.4815Y-4.624
X6.4815Y-4.879
X6.4815Y-4.924
X6.5315Y-3.374
X6.5315Y-3.424
X6.5315Y-3.624
X6.5315Y-3.874
X6.5315Y-4.024
X6.5515Y-4.179
X6.5715Y-4.159
X6.5815Y-4.324
X6.5815Y-4.674
X6.6105Y-4.194
X6.6265Y-4.169
X6.6265Y-4.839
X6.6315Y-4.274
X6.6315Y-4.324
X6.6315Y-4.944
X6.6605Y-4.5552
X6.6665Y-3.485
X6.6665Y-3.509
X6.6815Y-4.564
X6.6845Y-3.343
X6.7045Y-3.58
X6.7065Y-3.554
X6.7265Y-4.526
X6.7395Y-4.171
X6.7465Y-4.146
X6.7465Y-4.544
X6.7665Y-4.264
X6.7679Y-4.044
X6.7755Y-4.29
X6.7795Y-3.768
X6.7815Y-4.359
X6.7865Y-3.324
X6.7865Y-3.374
X6.7865Y-3.424
X6.7865Y-3.474
X6.7865Y-3.524
X6.8015Y-4.344
X6.8215Y-3.969
X6.8215Y-3.999
X6.8465Y-4.459
X6.8465Y-4.509
X6.864Y-3.924
X6.8665Y-3.894
X6.9165Y-3.894
X6.9315Y-3.474
X6.9315Y-3.524
X6.9315Y-3.574
X6.9315Y-3.624
X6.9315Y-3.674
X6.9815Y-3.474
X6.9815Y-3.524
X6.9815Y-3.574
X6.9815Y-3.624
X6.9815Y-3.674
X6.9815Y-3.724
X6.9815Y-3.774
X7.0315Y-4.624
X7.0315Y-4.724
X7.1315Y-4.324
X7.1315Y-4.424
X7.1315Y-4.524
X7.1315Y-4.624
X7.1315Y-4.724
T2
X5.0615Y-3.559
X5.0615Y-3.559
X5.2515Y-3.559
X5.2515Y-3.559
X6.2265Y-4.049
X6.2265Y-4.049
X6.4165Y-4.049
X6.4165Y-4.049
T3
X5.1445Y-4.8338
X5.1445Y-4.9322
X5.3995Y-4.8338
X5.3995Y-4.9322
T4
X5.7265Y-4.969
X6.0715Y-4.969
T5
X5.1565Y-3.559
X6.3215Y-4.049
T6
X5.9965Y-4.899
X6.1715Y-4.829
T7
X4.5615Y-4.264
X4.6135Y-3.1704
X4.6135Y-3.3476
X4.8695Y-3.1704
X4.8695Y-3.3476
T8
X5.2365Y-3.184
X5.3365Y-3.184
X5.4365Y-3.184
X5.5365Y-3.184
X5.5965Y-5.084
X5.6365Y-3.184
X5.6965Y-5.084
X5.7365Y-3.184
X5.7965Y-5.084
X5.8365Y-3.184
X5.8965Y-5.084
X5.9365Y-3.184
X5.9965Y-5.084
X6.0365Y-3.184
X6.0965Y-5.084
X6.1365Y-3.184
X6.1965Y-5.084
X6.2965Y-3.184
X6.2965Y-5.084
X6.3965Y-3.184
X6.4965Y-3.184
X6.4965Y-5.084
X6.5965Y-3.184
X6.5965Y-5.084
X6.6965Y-3.184
X6.6965Y-5.084
X6.7965Y-3.184
X6.7965Y-5.084
X6.8965Y-3.184
X6.8965Y-5.084
X6.9965Y-3.184
X6.9965Y-5.084
X7.0015Y-3.984
X7.0015Y-4.084
X7.0015Y-4.184
X7.1015Y-3.984
X7.1015Y-4.084
X7.1015Y-4.184
T10
X5.029Y-4.6565
X5.129Y-4.6565
X5.229Y-4.6565
T11
X6.4065Y-3.774
X6.9415Y-4.784
T9
G00X4.6999Y-4.8146
M15
G01X4.6999Y-4.8934
M16
G05
G00X4.8771Y-5.043
M15
G01X4.7983Y-5.043
M16
G05
G00X4.9361Y-4.8146
M15
G01X4.9361Y-4.8934
M16
G05
M30
